<svg width="20" height="24" viewBox="0 0 20 24" fill="none" xmlns="http://www.w3.org/2000/svg">
<path d="M10 0L0 4.36364V10.9091C0 16.9636 4.26667 22.6255 10 24C15.7333 22.6255 20 16.9636 20 10.9091V4.36364L10 0ZM17.7778 10.9091C17.7778 12.9273 17.2111 14.8909 16.2444 16.5927L14.6333 15.0109C15.3393 13.9622 15.6542 12.7061 15.5246 11.4554C15.395 10.2048 14.8289 9.0367 13.9222 8.14909C12.88 7.12732 11.4673 6.55343 9.99444 6.55343C8.52158 6.55343 7.10892 7.12732 6.06667 8.14909C5.02598 9.17239 4.44145 10.5594 4.44145 12.0055C4.44145 13.4515 5.02598 14.8385 6.06667 15.8618C6.97202 16.7498 8.16153 17.3041 9.43464 17.4313C10.7078 17.5584 11.9866 17.2507 13.0556 16.56L14.9667 18.4364C13.6444 19.9855 11.9333 21.1745 10 21.7527C5.53333 20.3891 2.22222 15.84 2.22222 10.9091V5.78182L10 2.38909L17.7778 5.78182V10.9091ZM10 15.2727C8.15556 15.2727 6.66667 13.8109 6.66667 12C6.66667 10.1891 8.15556 8.72727 10 8.72727C11.8444 8.72727 13.3333 10.1891 13.3333 12C13.3333 13.8109 11.8444 15.2727 10 15.2727Z" fill="#A2A4B9"/>
</svg>
